<?xml version="1.0" encoding="UTF-8"?>
<svg id="Capa_1" xmlns="http://www.w3.org/2000/svg" version="1.1" viewBox="0 0 1166.24 612">
  <!-- Generator: Adobe Illustrator 30.2.1, SVG Export Plug-In . SVG Version: 2.1.1 Build 1)  -->
  <defs>
    <style>
      .st0 {
        fill: #a7cd50;
      }

      .st1 {
        fill: #1c3e52;
      }

      .st2 {
        fill: #a8cd51;
      }

      .st3 {
        fill: #63af5a;
      }

      .st4 {
        fill: #9ac144;
      }

      .st5 {
        fill: #3d7f4b;
      }

      .st6 {
        fill: #24574b;
      }

      .st7 {
        fill: #fff;
      }

      .st8 {
        fill: #25584c;
      }

      .st9 {
        fill: #1c4452;
      }

      .st10 {
        fill: #1f3d53;
      }

      .st11 {
        fill: #225549;
      }

      .st12 {
        fill: #fdfdfd;
      }
    </style>
  </defs>
  <g>
    <path class="st10" d="M526.91,259.49l-3.5,21.88c-11.14-.32-18.47-.48-32.48-.48s-18.15,4.15-21.81,32.58c-3.34,24.27-1.91,30.34,11.62,30.34,15.6,0,24.36-.32,34.39-1.28l1.11,22.04c-11.3,3.51-21.17,4.79-36.77,4.79-35.34,0-47.44-15.65-41.55-58.12,6.05-43.59,19.1-55.89,54.44-55.89,15.92,0,24.36,1.28,34.55,4.15Z"/>
    <path class="st10" d="M613.82,328.95c-4.3,29.86-16.4,40.4-46.64,40.4s-43.14-11.5-38.68-42.64c4.14-30.18,16.24-40.88,46.96-40.88s42.82,11.82,38.37,43.11ZM558.58,328.95c-2.23,16.29-.8,20.12,9.55,20.12s13.21-4.31,15.76-22.36c2.55-16.61.8-20.44-8.92-20.44-10.51,0-13.69,3.99-16.4,22.67Z"/>
    <path class="st10" d="M701.22,367.43h-22.61l-.16-14.21c-11.78,11.34-22.13,16.45-33.27,16.45-15.92,0-23.24-8.46-21.17-22.67l8.12-58.92h29.13l-7.32,50.78c-.64,4.95,1.11,6.39,4.62,6.39,5.73,0,10.35-2.55,18.31-8.78l6.69-48.38h28.66l-10.98,79.36Z"/>
    <path class="st10" d="M783.2,312.5h-6.69c-6.21,0-12.42,1.92-23.4,5.59l-6.69,49.34h-29.13l11.14-79.36h22.61l.64,12.62c11.3-10.06,22.45-14.85,32.32-14.85h5.41l-6.21,26.67Z"/>
    <path class="st10" d="M827.61,340.45c-.8,4.95.16,6.23,5.73,6.23h9.87l1.43,19.32c-6.69,2.56-18.47,3.51-24.36,3.51-15.6,0-24.52-8.78-22.45-23l5.89-40.24h-13.85l2.23-17.41,14.33-.8,3.18-21.4h28.5l-3.02,21.4h20.22l-2.55,18.2h-20.22l-4.94,34.17Z"/>
    <path class="st4" d="M928.85,309.95l-.16.8c17.03,1.44,22.29,12.46,19.74,30.34-3.18,22.2-14.65,27.62-41.23,27.62-23.56,0-35.98-.16-50.78-1.28l15.44-110.18c13.05-1.12,24.36-1.28,42.66-1.28,28.34,0,39.8,6.71,36.77,29.86-2.07,15.33-7.64,22.83-22.45,24.11ZM907.68,319.85h-15.44l-3.82,27.31h13.21c11.94,0,15.28-2.56,17.03-14.21,1.43-10.7-.8-13.09-10.98-13.09ZM913.57,277.53h-15.44l-3.18,23.31h13.37c9.87,0,12.9-2.4,14.49-13.09,1.11-8.14-1.11-10.22-9.23-10.22Z"/>
    <path class="st4" d="M958.62,367.43l10.98-79.36h28.81l-10.98,79.36h-28.81ZM994.28,252.3c6.21,0,8.92,3.03,8.28,9.1l-1.12,8.3c-.8,5.59-3.5,7.98-9.39,7.98h-11.78c-6.05,0-8.76-2.87-7.96-9.1l1.11-8.3c.48-5.43,3.5-7.98,9.39-7.98h11.46Z"/>
    <path class="st4" d="M1044.74,340.45c-.8,4.95.16,6.23,5.73,6.23h9.87l1.43,19.32c-6.69,2.56-18.47,3.51-24.36,3.51-15.6,0-24.52-8.78-22.45-23l5.89-40.24h-13.85l2.23-17.41,14.33-.8,3.18-21.4h28.5l-3.02,21.4h20.22l-2.55,18.2h-20.22l-4.94,34.17Z"/>
  </g>
  <g>
    <g>
      <polygon class="st7" points="244.77 242.39 244.77 364.33 95.29 361.4 111.58 247.35 161.75 235.23 244.77 242.39"/>
      <polygon class="st5" points="173.01 262.61 163.52 346.1 244.77 346.1 244.77 262.61 173.01 262.61"/>
      <path class="st6" d="M96.18,355.16l-2.25,15.72c-1.09,7.63,4.83,14.46,12.54,14.46h138.29v-30.18H96.18Z"/>
      <polygon class="st8" points="164.04 262.61 109.4 262.61 97.48 346.1 153.49 346.1 164.04 262.61"/>
      <path class="st11" d="M244.77,226.67l-119.29.22c-6.3.01-11.63,4.64-12.52,10.88l-2.26,15.8h134.07v-26.89Z"/>
    </g>
    <g>
      <g>
        <path class="st1" d="M402.78,355.73h-92.32l.2-8.76v-3.58h-13.74v-14.53h12.74v-10.35h13.94v-13.14h-13.54v-13.93h12.94v-5.77h7.76v-5.77h-7.17v-10.35h13.94v-7.76l.2-8.76h48.85l-2.01-12.76c-1.24-7.84-8-13.61-15.93-13.61h-114.63v158.67h134.43c9.91,0,17.48-9.7,15.93-19.48l-1.6-10.12Z"/>
        <polygon class="st7" points="337.53 261.79 387.97 261.79 386.59 253.04 337.73 253.04 337.53 261.79"/>
        <polygon class="st7" points="310.65 346.97 310.46 355.73 402.78 355.73 401.4 346.97 310.65 346.97"/>
        <polygon class="st2" points="387.97 261.79 337.53 261.79 337.53 269.56 323.6 269.56 323.6 279.9 330.76 279.9 330.76 285.68 323 285.68 323 291.45 310.06 291.45 310.06 305.38 323.6 305.38 323.6 318.51 309.66 318.51 309.66 328.86 296.92 328.86 296.92 343.39 310.65 343.39 310.65 346.97 401.4 346.97 387.97 261.79"/>
      </g>
      <rect class="st9" x="330.72" y="291.44" width="11.35" height="11.35"/>
      <rect class="st9" x="324.55" y="329.49" width="14.74" height="14.74"/>
      <rect class="st0" x="284.71" y="346.62" width="11.95" height="11.95"/>
      <rect class="st7" x="262.6" y="365.35" width="13.35" height="13.35"/>
      <rect class="st7" x="271.56" y="328.89" width="13.35" height="13.35"/>
      <rect class="st0" x="269.17" y="305.39" width="12.55" height="12.55"/>
      <rect class="st3" x="295.07" y="306.78" width="11.16" height="11.16"/>
      <rect class="st0" x="284.91" y="283.87" width="11.35" height="11.35"/>
      <rect class="st0" x="298.05" y="254.99" width="13.35" height="13.35"/>
      <rect class="st0" x="321.96" y="254.99" width="11.55" height="11.55"/>
      <rect class="st3" x="262.79" y="285.07" width="11.35" height="11.35"/>
      <rect class="st12" x="253.83" y="287.86" width="6.77" height="18.73"/>
      <rect class="st12" x="253.83" y="268.54" width="8.57" height="12.15"/>
      <rect class="st12" x="253.25" y="251.4" width="9.55" height="11.95"/>
      <rect class="st7" x="262.2" y="232.08" width="13.74" height="13.74"/>
      <rect class="st7" x="268.37" y="266.14" width="13.74" height="13.74"/>
      <rect class="st12" x="253.83" y="312.36" width="9.76" height="15.14"/>
      <rect class="st12" x="253.83" y="333.28" width="9.76" height="8.17"/>
      <rect class="st12" x="253.25" y="345.83" width="10.34" height="12.35"/>
    </g>
  </g>
</svg>